<svg xmlns="http://www.w3.org/2000/svg" x="0px" y="0px"
width="48" height="48"
viewBox="0 0 172 172"
style=" fill:#4a90e2;"><defs><linearGradient x1="45.45817" y1="16.45467" x2="127.495" y2="149.93025" gradientUnits="userSpaceOnUse" id="color-1_Nf16V0tBlYwJ_gr1"><stop offset="0" stop-color="#33bef0"></stop><stop offset="1" stop-color="#0a85d9"></stop></linearGradient></defs><g fill="none" fill-rule="nonzero" stroke="none" stroke-width="1" stroke-linecap="butt" stroke-linejoin="miter" stroke-miterlimit="10" stroke-dasharray="" stroke-dashoffset="0" font-family="none" font-weight="none" font-size="none" text-anchor="none" style="mix-blend-mode: normal"><path d="M0,172v-172h172v172z" fill="none"></path><g><path d="M150.5,28.66667h-129c-3.95958,0 -7.16667,3.20708 -7.16667,7.16667v93.16667c0,3.95958 3.20708,7.16667 7.16667,7.16667h28.66667v28.6595c0,3.19275 3.85925,4.79092 6.11675,2.53342l31.19292,-31.19292h63.02367c3.95958,0 7.16667,-3.20708 7.16667,-7.16667v-93.16667c0,-3.95958 -3.20708,-7.16667 -7.16667,-7.16667z" fill="url(#color-1_Nf16V0tBlYwJ_gr1)"></path><path d="M107.5,114.66667c-3.95242,0 -7.16667,-3.21425 -7.16667,-7.16667v-14.33333c0,-3.95242 -3.21425,-7.16667 -7.16667,-7.16667h-14.33333v6.71875c0,3.956 -3.22142,7.17383 -7.18458,7.17383c-1.677,0 -3.25008,-0.57333 -4.55442,-1.6555l-21.12017,-17.46158c-1.64833,-1.36883 -2.59792,-3.37908 -2.59792,-5.5255c0,-2.14642 0.94958,-4.15667 2.6015,-5.52192l21.12375,-17.47233c1.30075,-1.07858 2.87742,-1.64833 4.55083,-1.64833c3.95958,0 7.18458,3.21783 7.18458,7.17383v6.71875h14.33333c15.80608,0 28.66667,12.86058 28.66667,28.66667v14.33333c0,3.95242 -3.21425,7.16667 -7.16667,7.16667z" fill="#000000" opacity="0.05"></path><path d="M107.5,112.875c-2.96342,0 -5.375,-2.41158 -5.375,-5.375v-14.33333c0,-4.94142 -4.01692,-8.95833 -8.95833,-8.95833h-16.125v8.51042c0,2.967 -2.41875,5.38217 -5.39292,5.38217c-1.25058,0 -2.4295,-0.42642 -3.40775,-1.24342l-21.12375,-17.46517c-1.23983,-1.02483 -1.94933,-2.53342 -1.94933,-4.14233c0,-1.60892 0.7095,-3.1175 1.94933,-4.14233l21.12375,-17.46875c0.97825,-0.81342 2.16075,-1.23983 3.40775,-1.23983c2.97417,0 5.39292,2.41517 5.39292,5.38217v8.51042h16.125c14.82067,0 26.875,12.05433 26.875,26.875v14.33333c0,2.96342 -2.41158,5.375 -5.375,5.375z" fill="#000000" opacity="0.07"></path><path d="M93.16667,68.08333h-17.91667v-10.30208c0,-3.0315 -3.52958,-4.69417 -5.86592,-2.76275l-21.12375,17.46875c-1.73433,1.43333 -1.73433,4.08858 0,5.52192l21.12375,17.46875c2.33633,1.935 5.86592,0.27233 5.86592,-2.75917v-10.30208h17.91667c5.93758,0 10.75,4.81242 10.75,10.75v14.33333c0,1.978 1.60533,3.58333 3.58333,3.58333h7.16667c1.978,0 3.58333,-1.60533 3.58333,-3.58333v-14.33333c0,-13.85317 -11.23017,-25.08333 -25.08333,-25.08333z" fill="#ffffff"></path></g></g></svg>