<svg xmlns="http://www.w3.org/2000/svg" x="0px" y="0px"
width="48" height="48"
viewBox="0 0 172 172"
style=" fill:#ffffff;"><defs><linearGradient x1="15.781" y1="15.781" x2="138.98317" y2="138.98317" gradientUnits="userSpaceOnUse" id="color-1_SkbzwdwhI2sy_gr1"><stop offset="0.002" stop-color="#f44f78"></stop><stop offset="0.397" stop-color="#e4305d"></stop><stop offset="0.763" stop-color="#d81b4a"></stop><stop offset="1" stop-color="#d41343"></stop></linearGradient></defs><g fill="none" fill-rule="nonzero" stroke="none" stroke-width="1" stroke-linecap="butt" stroke-linejoin="miter" stroke-miterlimit="10" stroke-dasharray="" stroke-dashoffset="0" font-family="none" font-weight="none" font-size="none" text-anchor="none" style="mix-blend-mode: normal"><path d="M0,172v-172h172v172z" fill="none"></path><g><circle cx="24" cy="24" transform="scale(3.58333,3.58333)" r="20" fill="url(#color-1_SkbzwdwhI2sy_gr1)"></circle><path d="M86,125.04042c-2.2145,0 -4.29642,-0.86358 -5.85875,-2.42592l-29.5195,-29.52667c-0.301,-0.29383 -7.62175,-7.57158 -7.62175,-15.66992c0,-12.84267 10.449,-23.29167 23.29167,-23.29167c8.69675,0 16.039,5.25675 19.70833,8.46383c3.66933,-3.20708 11.01158,-8.46383 19.70833,-8.46383c12.84267,0 23.29167,10.449 23.29167,23.29167c0,8.09475 -7.3315,15.38683 -7.64325,15.69142l-29.498,29.50158c-1.56592,1.56592 -3.64425,2.4295 -5.85875,2.4295z" fill="#000000" opacity="0.05"></path><path d="M86,123.24875c-1.73433,0 -3.36475,-0.67367 -4.59383,-1.90275l-29.5195,-29.52667c-0.2795,-0.27592 -7.095,-7.06633 -7.095,-14.405c0,-11.85725 9.64275,-21.5 21.5,-21.5c9.13033,0 16.73058,6.26008 19.70833,9.09808c2.97775,-2.838 10.578,-9.09808 19.70833,-9.09808c11.85725,0 21.5,9.64275 21.5,21.5c0,7.33867 -6.8155,14.12908 -7.10575,14.41217l-29.50875,29.51592c-1.22908,1.23267 -2.8595,1.90633 -4.59383,1.90633z" fill="#000000" opacity="0.05"></path><path d="M86,67.56375c0,0 8.82217,-9.85417 19.70833,-9.85417c10.88617,0 19.70833,8.944 19.70833,19.70833c0,6.67217 -6.57183,13.1365 -6.57183,13.1365l-29.5195,29.52667c-1.83467,1.83467 -4.816,1.83467 -6.65067,0l-29.5195,-29.52667c0,0 -6.57183,-6.46792 -6.57183,-13.1365c0,-10.76433 8.82217,-19.70833 19.70833,-19.70833c10.88617,0 19.70833,9.85417 19.70833,9.85417z" fill="#ffffff"></path></g></g></svg>